<?xml version="1.0" encoding="UTF-8"?>
<svg id="Layer_1" data-name="Layer 1" xmlns="http://www.w3.org/2000/svg" xmlns:xlink="http://www.w3.org/1999/xlink" viewBox="0 0 200 100">
  <defs>
    <style>
      .cls-1 {
        fill: #f78e20;
      }

      .cls-1, .cls-2, .cls-3, .cls-4, .cls-5, .cls-6, .cls-7, .cls-8, .cls-9, .cls-10, .cls-11, .cls-12, .cls-13 {
        stroke-width: 0px;
      }

      .cls-2 {
        fill: url(#linear-gradient-5);
      }

      .cls-2, .cls-3, .cls-4, .cls-5, .cls-6, .cls-7, .cls-8, .cls-13 {
        opacity: .3;
      }

      .cls-3 {
        fill: url(#linear-gradient-8);
      }

      .cls-4 {
        fill: url(#linear-gradient-3);
      }

      .cls-5 {
        fill: url(#linear-gradient-6);
      }

      .cls-6 {
        fill: url(#linear-gradient-7);
      }

      .cls-7 {
        fill: url(#linear-gradient-4);
      }

      .cls-8 {
        fill: url(#linear-gradient-2);
      }

      .cls-9 {
        fill: #000;
      }

      .cls-10 {
        fill: #72be44;
      }

      .cls-11 {
        fill: #fdfeff;
      }

      .cls-12 {
        fill: #fff;
      }

      .cls-13 {
        fill: url(#linear-gradient);
      }
    </style>
    <linearGradient id="linear-gradient" x1="-586.17" y1="21.49" x2="-586.99" y2="21.13" gradientTransform="translate(-495.72 -10.03) rotate(-177.55) scale(1 -1)" gradientUnits="userSpaceOnUse">
      <stop offset="0" stop-color="#000"/>
      <stop offset=".09" stop-color="#040404"/>
      <stop offset=".18" stop-color="#101010"/>
      <stop offset=".27" stop-color="#242424"/>
      <stop offset=".36" stop-color="#404040"/>
      <stop offset=".45" stop-color="#646464"/>
      <stop offset=".51" stop-color="#7e7e7e"/>
      <stop offset=".56" stop-color="#626262"/>
      <stop offset=".65" stop-color="#3f3f3f"/>
      <stop offset=".73" stop-color="#232323"/>
      <stop offset=".82" stop-color="#0f0f0f"/>
      <stop offset=".91" stop-color="#030303"/>
      <stop offset="1" stop-color="#000"/>
    </linearGradient>
    <linearGradient id="linear-gradient-2" x1="-568.14" y1="152.11" x2="-568.96" y2="151.75" gradientTransform="translate(-548.47 64.09) rotate(165.09) scale(1.03 -1.15) skewX(-7.96)" xlink:href="#linear-gradient"/>
    <linearGradient id="linear-gradient-3" x1="-224.17" y1="-126.3" x2="-224.75" y2="-126.56" gradientTransform="translate(-17.15 -160.28) rotate(-84.08) scale(1.03 -1.15) skewX(-7.96)" xlink:href="#linear-gradient"/>
    <linearGradient id="linear-gradient-4" x1="-562.12" y1="137.59" x2="-562.94" y2="137.23" gradientTransform="translate(-548.47 64.09) rotate(165.09) scale(1.03 -1.15) skewX(-7.96)" xlink:href="#linear-gradient"/>
    <linearGradient id="linear-gradient-5" x1="-555.94" y1="123.63" x2="-556.76" y2="123.27" gradientTransform="translate(-548.47 64.09) rotate(165.09) scale(1.03 -1.15) skewX(-7.96)" xlink:href="#linear-gradient"/>
    <linearGradient id="linear-gradient-6" x1="-568.94" y1="114.63" x2="-569.75" y2="114.27" gradientTransform="translate(-548.47 64.09) rotate(165.09) scale(1.03 -1.15) skewX(-7.96)" xlink:href="#linear-gradient"/>
    <linearGradient id="linear-gradient-7" x1="-581.38" y1="14.23" x2="-582.19" y2="13.86" gradientTransform="translate(-496.74 -4.83) rotate(-178.56) scale(1 -1)" xlink:href="#linear-gradient"/>
    <linearGradient id="linear-gradient-8" x1="-576.13" y1="2.77" x2="-576.94" y2="2.4" gradientTransform="translate(-496.74 -4.83) rotate(-178.56) scale(1 -1)" xlink:href="#linear-gradient"/>
  </defs>
  <g>
    <g>
      <path class="cls-9" d="M82.57,94.88c-1.11,0-2.04-.55-2.3-.72l-.22-.14-.17-.19c-.41-.45-9.98-11.05-10.4-11.52-.34-.38-.54-.84-.65-1.3-.31-.1-.52-.2-.59-.24l-.34-.17-.25-.29c-.37-.42-9.06-10.31-9.63-10.96-.38-.44-.61-.94-.74-1.42-.63-.19-1.01-.47-1.18-.62l-.1-.09-.08-.1c-.88-1.01-8.6-9.87-9.25-10.67-1.12-1.39-.81-3.04-.45-3.8l.05-.1.06-.09c1.43-2.31,6.13-9.9,6.76-10.7.3-.38.65-.7,1.04-.93.07-.2.14-.38.21-.53l.05-.1.06-.09c.23-.38,5.66-9.34,6.57-10.77,1.33-2.09,3.08-2.44,3.41-2.49h.05s.05-.01.05-.01c1.42-.14,3.24-.33,4.67-.47-.68-1.68-1.54-3.82-1.81-4.56-.65-1.82-.19-3.27-.09-3.55l.07-.18.1-.17c1.5-2.45,6.44-10.5,7.14-11.39.67-.85,1.76-1.28,3.26-1.28.88,0,1.65.15,1.74.16l.12.02.12.04c.39.13,9.68,3.17,10.85,3.57.79.27,1.37.66,1.77,1.1.23-.03.48-.05.75-.05.44,0,.79.05.85.06l.16.03.16.05c1.08.36,10.56,3.53,11.15,3.74.39.14.72.35.98.59.16-.02.32-.02.48-.02.57,0,1,.09,1.12.12l.08.02.08.03c.09.03,8.6,2.77,9.56,3.06,1.58.49,2.43,1.69,2.59,1.93l.02.04.02.04c.49.83,4.83,8.11,5.24,8.85.24.44.36.87.4,1.27.32.28.54.53.61.63l.07.09.06.1c1.24,2.09,5.33,8.97,5.73,9.83.21.45.31.9.33,1.32.02.01.03.03.04.04l.2.19.14.24c1.8,3.08,5.34,9.13,5.85,9.93.91,1.47.65,3.13.15,4.11l-.09.17-.12.15c-8.19,10.32-8.52,10.63-8.65,10.75-.58.54-1.41.79-2.61.79h0c-.21,0-.35,0-.38,0h-.15s-4.54-.96-4.54-.96c-2.19,2.69-2.41,2.89-2.52,2.98-.03.03-.06.06-.1.09-.08.28-.21.53-.39.76-.67.89-5.94,7.92-6.6,8.72-.86,1.05-1.84,1.55-2.1,1.67-7.3,3.52-26.34,12.7-27.06,13.07-.43.22-.9.34-1.41.34Z"/>
      <path id="base" class="cls-9" d="M137.51,55.46s.58-1.12-.07-2.16c-.65-1.04-5.87-9.98-5.87-9.98,0,0-.48-.46-1.09-.23-.61.23-.11-.18-.11-.18l.27-.22s.53-.49.14-1.33c-.39-.84-5.64-9.66-5.64-9.66,0,0-.61-.8-1.31-.73s-.05-.26-.05-.26l.12-.07s.47-.37.07-1.1-5.2-8.79-5.2-8.79c0,0-.54-.82-1.52-1.12s-9.58-3.07-9.58-3.07c0,0-1.22-.28-1.97.3s-.28-.3-.28-.3c0,0,.02-.54-.56-.75s-11.11-3.73-11.11-3.73c0,0-1.5-.23-2.06.49-.56.73-.42-.61-.42-.61,0,0-.05-.68-1.22-1.08s-10.83-3.56-10.83-3.56c0,0-2.39-.47-3.07.4s-7.01,11.2-7.01,11.2c0,0-.35.96.09,2.2.45,1.24,2.69,6.73,2.69,6.73,0,0,.07.19-.09.21s-7.12.73-7.12.73c0,0-1.12.17-2.04,1.6-.91,1.43-6.55,10.73-6.55,10.73,0,0-.39.85-.19,1.22,0,0-.7-.14-1.3.63-.61.77-6.63,10.52-6.63,10.52,0,0-.44.92.2,1.71.64.79,9.2,10.62,9.2,10.62,0,0,.44.39,1.68.34,0,0-.15,1.23.42,1.89.57.66,9.62,10.95,9.62,10.95,0,0,.71.35,1.6.27,0,0-.19,1.25.24,1.72.42.47,10.4,11.51,10.4,11.51,0,0,1.01.66,1.72.29s27.13-13.1,27.13-13.1c0,0,.77-.34,1.42-1.14s6.56-8.67,6.56-8.67c0,0,.35-.42-.35-.89s.23-.23.23-.23c0,0,.59.26.84.02s3.07-3.7,3.07-3.7l5.58,1.17s1.17.07,1.52-.26,8.45-10.53,8.45-10.53Z"/>
      <g id="reflets">
        <path class="cls-13" d="M89.83,36.21c1.01,2.55,1.64,4.69,1.41,4.78-.23.09-1.23-1.91-2.24-4.46-1.01-2.55-1.64-4.69-1.41-4.78.23-.09,1.23,1.9,2.24,4.46Z"/>
        <path class="cls-8" d="M85.21,75.36c2.2,2.39,3.84,4.46,3.66,4.62-.18.17-2.11-1.63-4.32-4.02-2.2-2.39-3.84-4.46-3.66-4.62.18-.17,2.11,1.63,4.32,4.02Z"/>
        <path class="cls-4" d="M105.11,67.37c-2.16.87-3.96,1.44-4.02,1.27-.07-.16,1.63-1,3.79-1.86,2.16-.87,3.96-1.44,4.02-1.27.07.16-1.63,1-3.79,1.86Z"/>
        <path class="cls-7" d="M72.89,61.41c2.2,2.39,3.84,4.46,3.66,4.62-.18.17-2.11-1.63-4.32-4.02-2.2-2.39-3.84-4.46-3.66-4.62.18-.17,2.11,1.63,4.32,4.02Z"/>
        <path class="cls-2" d="M60.66,48.11c2.2,2.39,3.84,4.46,3.66,4.62-.18.17-2.11-1.63-4.32-4.02-2.2-2.39-3.84-4.46-3.66-4.62.18-.17,2.11,1.63,4.32,4.02Z"/>
        <path class="cls-5" d="M69.72,35.02c2.2,2.39,3.84,4.46,3.66,4.62-.18.17-2.11-1.63-4.32-4.02-2.2-2.39-3.84-4.46-3.66-4.62.18-.17,2.11,1.63,4.32,4.02Z"/>
        <path class="cls-6" d="M84.93,23.7c1.05,2.53,1.72,4.66,1.49,4.76-.23.09-1.26-1.88-2.32-4.42-1.05-2.53-1.72-4.66-1.49-4.76.23-.09,1.26,1.88,2.32,4.42Z"/>
        <path class="cls-3" d="M79.97,12.11c1.05,2.53,1.72,4.66,1.49,4.76-.23.09-1.26-1.88-2.32-4.42-1.05-2.53-1.72-4.66-1.49-4.76.23-.09,1.26,1.88,2.32,4.42Z"/>
      </g>
      <g id="cases">
        <g>
          <path class="cls-11" d="M118.51,21.09l3.93,6.43s.6,1.01-.71.69c-1.31-.32-8.68-2.48-8.68-2.48,0,0-.82-.24-1.4-.97-.58-.73-4.09-7.21-4.09-7.21,0,0-.45-.78.65-.47,1.1.3,8.71,2.74,8.71,2.74,0,0,1.06.39,1.59,1.27Z"/>
          <path class="cls-11" d="M105.78,17.22l3.05,6.36s.6,1.01-.71.69c-1.31-.32-8.79-2.57-8.79-2.57,0,0-.82-.24-1.4-.97-.58-.73-3.32-7.17-3.32-7.17,0,0-.45-.78.65-.47s8.93,2.86,8.93,2.86c0,0,1.02.26,1.59,1.27Z"/>
          <path class="cls-11" d="M125.15,32.21l4.09,7.19s.64,1.12-.74.77c-1.38-.35-9.01-2.42-9.01-2.42,0,0-.86-.26-1.47-1.07-.62-.81-4.32-8.11-4.32-8.11,0,0-.48-.86.67-.53,1.15.32,9.1,2.76,9.1,2.76,0,0,1.05.31,1.68,1.4Z"/>
          <path class="cls-11" d="M131.37,43.9l4.54,7.96s.64,1.12-.74.77c-1.38-.35-9.01-2.28-9.01-2.28,0,0-.86-.26-1.47-1.07-.62-.81-4.5-8.58-4.5-8.58,0,0-.48-.86.67-.53,1.15.32,8.83,2.32,8.83,2.32,0,0,1.07.34,1.68,1.4Z"/>
          <path class="cls-11" d="M117.71,40.1l3.91,8.28s.64,1.12-.74.77c-1.38-.35-10.11-2.48-10.11-2.48,0,0-.86-.26-1.47-1.07-.62-.81-4.18-8.96-4.18-8.96,0,0-.48-.86.67-.53,1.15.32,10.24,2.58,10.24,2.58,0,0,1.11.32,1.68,1.4Z"/>
          <path class="cls-11" d="M111.28,28.03l3.98,7.59s.64,1.12-.74.77c-1.38-.35-9.67-2.38-9.67-2.38,0,0-.86-.26-1.47-1.07-.62-.81-3.99-8.62-3.99-8.62,0,0-.48-.86.67-.53,1.15.32,9.54,2.84,9.54,2.84,0,0,1.11.32,1.68,1.4Z"/>
          <path class="cls-11" d="M102.14,35.74l3.84,8.39s.64,1.12-.74.77c-1.38-.35-11.49-2.92-11.49-2.92,0,0-.86-.26-1.47-1.07-.62-.81-3.56-9.23-3.56-9.23,0,0-.32-.81.67-.53,1.15.32,11.07,3.19,11.07,3.19,0,0,1.06.2,1.68,1.4Z"/>
          <path class="cls-11" d="M96.79,23.71l3.24,7.35s.64,1.12-.74.77c-1.38-.35-10.19-2.92-10.19-2.92,0,0-.86-.26-1.47-1.07-.62-.81-3.55-8.27-3.55-8.27,0,0-.32-.81.67-.53,1.15.32,10.36,3.27,10.36,3.27,0,0,1.06.2,1.68,1.4Z"/>
          <path class="cls-11" d="M91.43,12.56l2.72,6.31s.64,1.12-.74.77c-1.38-.35-9.62-2.92-9.62-2.92,0,0-.86-.26-1.47-1.07-.62-.81-3.06-7.13-3.06-7.13,0,0-.32-.81.67-.53,1.15.32,9.82,3.17,9.82,3.17,0,0,1.06.2,1.68,1.4Z"/>
        </g>
        <g>
          <path class="cls-1" d="M64.28,31.67s-.8-.77-1.38.07c-.45.65-5.83,9.38-5.83,9.38,0,0-.54.91.04,1.52s7.97,9.24,7.97,9.24c0,0,.51.44.98-.07.47-.51,6.75-9.47,6.75-9.47,0,0,.47-.83-.15-1.49-.62-.65-8.38-9.18-8.38-9.18Z"/>
          <path class="cls-1" d="M55.62,44.61s-.8-.77-1.38.07c-.45.65-5.54,9.06-5.54,9.06,0,0-.54.91.04,1.52s8.07,9.34,8.07,9.34c0,0,.51.44.98-.07.47-.51,6.26-9.35,6.26-9.35,0,0,.47-.83-.15-1.49-.62-.65-8.28-9.08-8.28-9.08Z"/>
          <path class="cls-1" d="M67.62,57.94s-.77-.8-1.38.03c-.47.63-5.93,8.6-5.93,8.6,0,0-.58.89-.02,1.52.56.64,8.36,9.51,8.36,9.51,0,0,.49.45.98-.04.49-.49,6.38-8.68,6.38-8.68,0,0,.5-.82-.09-1.49-.59-.67-8.3-9.44-8.3-9.44Z"/>
          <path class="cls-1" d="M79.37,70.92s-.77-.8-1.38.03c-.47.63-6.31,8.49-6.31,8.49,0,0-.58.89-.02,1.52.56.64,8.87,9.9,8.87,9.9,0,0,.49.45.98-.04.49-.49,6.83-8.46,6.83-8.46,0,0,.5-.82-.09-1.49-.59-.67-8.88-9.94-8.88-9.94Z"/>
          <path class="cls-1" d="M89.06,58.75s-.77-.8-1.38.03c-.47.63-6.77,8.98-6.77,8.98,0,0-.58.89-.02,1.52.56.64,9.16,9.91,9.16,9.91,0,0,.49.45.98-.04.49-.49,7.25-9.14,7.25-9.14,0,0,.5-.82-.09-1.49-.59-.67-9.13-9.77-9.13-9.77Z"/>
          <path class="cls-1" d="M76.72,8.58s-.38-.73-.82-.1c-.32.45-6.3,10.19-6.3,10.19,0,0-.47.89-.12,1.94.35,1.05,3.02,7.15,3.02,7.15,0,0,.4.56.94-.21s6.37-10.26,6.37-10.26c0,0,.35-.66.05-1.45s-3.14-7.26-3.14-7.26Z"/>
          <path class="cls-1" d="M81.45,19.49s-.38-.73-.82-.1c-.32.45-6.86,10.48-6.86,10.48,0,0-.47.89-.12,1.94.35,1.05,3.21,8.08,3.21,8.08,0,0,.4.56.94-.21.54-.77,6.94-10.17,6.94-10.17,0,0,.35-.66.05-1.45s-3.34-8.58-3.34-8.58Z"/>
          <path class="cls-1" d="M86.64,31.96s-.38-.73-.82-.1c-.32.45-7.09,10.48-7.09,10.48,0,0-.47.89-.12,1.94s3.77,8.93,3.77,8.93c0,0,.4.56.94-.21.54-.77,7.03-10.17,7.03-10.17,0,0,.35-.66.05-1.45s-3.77-9.42-3.77-9.42Z"/>
          <path class="cls-1" d="M84.11,57.51l-5.48,7.48s-.7.89-1.59-.08c-.78-.86-8.3-9.32-8.3-9.32,0,0-.69-.78,0-1.76.69-.98,6.09-8.95,6.09-8.95,0,0,.78-.99,1.59-.25.66.61,1.73,1.66,1.73,1.66,0,0,.33.45.6,1.24.08.24,2.66,6.09,2.66,6.09,0,0,.78,2.45,2.7,3.88Z"/>
        </g>
        <g>
          <path class="cls-10" d="M105.92,48.29s.63-.94-.44-1.2c-.84-.21-11.29-2.87-11.29-2.87,0,0-1.03-.28-1.35.17-.28.39-6.97,10.09-6.97,10.09,0,0-1.11,1.48.15,1.79,1.09.27,10.75,2.33,10.75,2.33,0,0,1.14.31,1.6-.25.39-.49,7.56-10.07,7.56-10.07Z"/>
          <path class="cls-10" d="M121.21,52.3s.6-.87-.42-1.12c-.8-.19-10.49-2.44-10.49-2.44,0,0-.98-.26-1.28.16-.26.36-7.23,9.38-7.23,9.38,0,0-1.05,1.38.14,1.67,1.03.25,10.12,2.23,10.12,2.23,0,0,1.09.29,1.51-.23.37-.45,7.65-9.65,7.65-9.65Z"/>
          <path class="cls-10" d="M135.79,55.68s.6-.87-.42-1.12c-.8-.19-9.74-2.48-9.74-2.48,0,0-.98-.26-1.28.16-.26.36-7.23,9.47-7.23,9.47,0,0-1.05,1.38.14,1.67,1.03.25,9.41,2.12,9.41,2.12,0,0,1.09.29,1.51-.23.37-.45,7.6-9.59,7.6-9.59Z"/>
          <path class="cls-10" d="M108,66.8l-6.24,2.66s-.87.39-1.28.96c-.42.57-7.11,8.93-7.11,8.93,0,0-.83,1.09.36.57.98-.43,7.08-3.35,7.08-3.35,0,0,.54-.21.99-.78.45-.57,6.75-8.54,6.75-8.54,0,0,.66-.99-.54-.45Z"/>
          <path class="cls-10" d="M98.12,79.61l-6.24,2.66s-.87.39-1.28.96c-.42.57-6.51,8-6.51,8,0,0-.83,1.09.36.57.98-.43,7.28-3.46,7.28-3.46,0,0,.54-.21.99-.78.45-.57,5.95-7.5,5.95-7.5,0,0,.66-.99-.54-.45Z"/>
          <path class="cls-10" d="M107.86,74.71l-6.24,3.15s-.87.39-1.28.96c-.42.57-5.44,7.19-5.44,7.19,0,0-.83,1.09.36.57.98-.43,6.24-2.97,6.24-2.97,0,0,.54-.21.99-.78.45-.57,5.92-7.66,5.92-7.66,0,0,.66-.99-.54-.45Z"/>
          <path class="cls-10" d="M116.33,70.76l-5.18,2.54s-.87.39-1.28.96c-.42.57-5.35,7.1-5.35,7.1,0,0-.83,1.09.36.57.98-.43,5.22-2.49,5.22-2.49,0,0,.54-.21.99-.78.45-.57,5.79-7.45,5.79-7.45,0,0,.66-.99-.54-.45Z"/>
          <path class="cls-10" d="M111.72,70.96s-.56.79-1.51,1.27c-.95.48-6.33,3.04-6.33,3.04,0,0-1.13.48-.27-.55.85-1.03,6.7-8.44,6.7-8.44,0,0,.51-.72,1.11-.98.59-.26,3.41-1.43,3.41-1.43,0,0,.48-.18,1.06-.06s1.11.29,1.11.29c0,0,.26.14.14.27s-5.42,6.59-5.42,6.59Z"/>
          <path class="cls-10" d="M119.23,68.14s-.53.61-1.18.9c-.64.3-4.23,1.83-4.23,1.83,0,0-1.32.43-.59-.46s4.59-5.78,4.59-5.78c0,0,.32-.34.59-.28.27.06,2.98.62,2.98.62,0,0,.26.13.17.27-.09.14-2.34,2.91-2.34,2.91Z"/>
        </g>
      </g>
    </g>
    <path class="cls-9" d="M189.86,43.29c-.75-1.1-1.85-1.73-3.04-1.73h-8.65c-1.22,0-2.29.53-3.05,1.42-.71-.85-1.68-1.42-2.84-1.42h-8.81c-1.15,0-2.17.55-2.89,1.44-.75-.89-1.8-1.44-2.96-1.44h-4.72v-2.62c0-1.09-.88-1.97-1.97-1.97h-4.01c-1.09,0-1.97.88-1.97,1.97v2.63h-10.54c-1,0-2.06.52-2.84,1.4-.73-.86-1.72-1.4-2.77-1.4h-8.72c-1.11,0-2.14.52-2.88,1.36-.72-.84-1.74-1.36-2.88-1.36h-4.87c0-1.5,0-2.59,0-2.74,0-1.09-.88-1.97-1.97-1.97h-4.05c-1.09,0-1.97.88-1.97,1.97v2.74h-3.69c-1.09,0-1.97.88-1.97,1.97v7.5h-.86v-7.5c0-1.09-.88-1.97-1.97-1.97h-4.08c-.6,0-1.14.27-1.5.7-.59-.43-1.29-.7-2.08-.7h-8.81c-.57,0-1.11.14-1.6.38v-3.13c0-1.09-.88-1.97-1.97-1.97h-4.05c-1.09,0-1.97.88-1.97,1.97,0,.15,0,1.24,0,2.74h-4.87c-1.15,0-2.19.54-2.92,1.41-.73-.86-1.72-1.4-2.77-1.4h-8.72c-1.14,0-2.19.55-2.94,1.43-.73-.87-1.73-1.43-2.79-1.43h-8.72c-1.14,0-2.19.55-2.94,1.42-.73-.91-1.74-1.42-2.81-1.42h-8.65c-.87,0-1.66.27-2.32.74-.36-.45-.92-.74-1.54-.74H4.01c-1.9,0-4.01,1.87-4.01,4.56v3.08c0,.78.22,1.64.62,2.41-.36.36-.59.85-.59,1.4v3.51c0,1.09.88,1.97,1.97,1.97h10.92c.55,0,1.08-.13,1.55-.36v3.17c0,1.09.88,1.97,1.97,1.97h4.05c1.09,0,1.97-.88,1.97-1.97,0-.15,0-1.28,0-2.82h4.87c1.12,0,2.13-.51,2.85-1.33.68.83,1.61,1.33,2.65,1.33h7.01c1.09,0,1.97-.88,1.97-1.97v-2.62h1.65c.11,2.6,1.74,4.6,3.82,4.6h7.01c1.09,0,1.97-.88,1.97-1.97v-2.62h1.75c.02,1.01.34,2.05.89,2.86.75,1.1,1.85,1.73,3.04,1.73h8.65c1.19,0,2.24-.51,3-1.36.7.84,1.66,1.36,2.72,1.36h9.05c1.06,0,2-.49,2.71-1.31.79.93,1.87,1.31,2.92,1.31h10.8c.63,0,1.18-.29,1.55-.75.66.47,1.45.74,2.32.74h8.65c1.05,0,2.04-.49,2.77-1.37.69.85,1.63,1.37,2.68,1.37h7.01c1.09,0,1.97-.88,1.97-1.97v-2.62h1.65v2.62c0,1.09.88,1.97,1.97,1.97h10.92c.77,0,1.48-.24,2.07-.68.03.03.06.07.09.1.37.37.87.58,1.4.58h4.04c1.09,0,1.97-.88,1.97-1.97v-7.36h.88c-.01,2.23-.04,7.29-.04,7.35,0,.53.2,1.03.57,1.4.37.37.87.58,1.4.58h4.09c.61,0,1.15-.27,1.51-.7.59.44,1.29.7,2.03.7h9.05c.55,0,1.07-.13,1.53-.37v3.19c0,1.09.88,1.97,1.97,1.97h4.05c1.09,0,1.97-.88,1.97-1.97,0-.15,0-1.28,0-2.82h4.87c2.19,0,3.96-1.95,3.96-4.34v-7.89c0-1.05-.33-2.13-.9-2.97ZM23.39,51.03h-.89c0-.74,0-1.39,0-1.88h.89v1.88ZM66.84,51.04h-.89v-1.86h.89c0,.73,0,1.37,0,1.86ZM81.32,50.65v.38h-.87v-1.88h.87v.32c0,.21.03.41.09.59-.06.19-.09.39-.09.59ZM110.35,51.04h-.89c0-.49,0-1.13,0-1.86h.89v1.86ZM168.31,51.03h-.87v-1.88h.87v1.88ZM182.83,51.03h-.89c0-.74,0-1.39,0-1.88h.89v1.88Z"/>
    <g>
      <path class="cls-11" d="M14.86,47.18v-3.65H4.01c-.76,0-2.04.95-2.04,2.58v3.08c0,1.11.88,2.72,1.82,2.72h6.49c.43,0,.57.13.57.54s-.17.54-.37.54H2.01v3.51h10.92c1.18,0,1.97-1.32,1.97-2.86v-2.55c0-1.8-1.01-2.8-2.32-2.8h-6.1c-.39,0-.45-.3-.45-.59s.17-.54.33-.54h8.51Z"/>
      <path class="cls-11" d="M145.25,47.18v-3.65h-10.85c-.76,0-2.04.95-2.04,2.58v3.08c0,1.11.88,2.72,1.82,2.72h6.49c.43,0,.57.13.57.54s-.17.54-.37.54h-8.48v3.51h10.92c1.18,0,1.97-1.32,1.97-2.86v-2.55c0-1.8-1.01-2.8-2.32-2.8h-6.1c-.39,0-.45-.3-.45-.59s.17-.54.33-.54h8.51Z"/>
      <path class="cls-11" d="M20.5,61.3h-4.05v-14.88c0-1.56.9-2.89,2.27-2.89h8.65c1.14,0,1.97,1.4,1.97,2.72v7.89c0,1.4-.97,2.37-1.99,2.37h-6.02v-3.51h3.1c.47,0,.92-.4.92-1.09v-3.6c0-.78-.43-1.14-1.02-1.14h-2.99c-.43,0-.83.43-.83.97s-.02,13.15-.02,13.15Z"/>
      <path class="cls-11" d="M179.94,61.3h-4.05v-14.88c0-1.56.9-2.89,2.27-2.89h8.65c1.14,0,1.97,1.4,1.97,2.72v7.89c0,1.4-.97,2.37-1.99,2.37h-6.02v-3.51h3.1c.47,0,.92-.4.92-1.09v-3.6c0-.78-.43-1.14-1.02-1.14h-2.99c-.43,0-.83.43-.83.97s-.02,13.15-.02,13.15Z"/>
      <path class="cls-11" d="M68.84,38.81h4.05v14.8c0,1.56-.9,2.89-2.27,2.89h-8.65c-1.14,0-1.97-1.4-1.97-2.72v-7.89c0-1.4.97-2.37,1.99-2.37h6.02v3.68h-3.1c-.47,0-.92.4-.92,1.09v3.58c0,.78.43,1.14,1.02,1.14h2.99c.43,0,.83-.43.83-.97s.02-13.23.02-13.23Z"/>
      <path class="cls-11" d="M107.46,38.81h-4.05v14.8c0,1.56.9,2.89,2.27,2.89h8.65c1.14,0,1.97-1.4,1.97-2.72v-7.89c0-1.4-.97-2.37-1.99-2.37h-6.02v3.68h3.1c.47,0,.92.4.92,1.09v3.58c0,.78-.43,1.14-1.02,1.14h-2.99c-.43,0-.83-.43-.83-.97s-.02-13.23-.02-13.23Z"/>
      <path class="cls-11" d="M35.83,51.92h8.06v-5.54c0-1.54-1.07-2.84-2.04-2.84h-8.72c-1.02,0-2.13,1.09-2.13,2.61v7.49c0,1.49.78,2.89,1.85,2.89h7.01v-3.51h-3.98c-.52,0-.85-.47-.85-1.28v-3.55c0-.64.33-1,.78-1h3.2c.5,0,.81.5.81,1.09h-3.98v3.65Z"/>
      <path class="cls-11" d="M50.29,51.92h8.06v-5.54c0-1.54-1.07-2.84-2.04-2.84h-8.72c-1.02,0-2.13,1.09-2.13,2.61v7.49c0,1.49.78,2.89,1.85,2.89h7.01v-3.51h-3.98c-.52,0-.85-.47-.85-1.28v-3.55c0-.64.33-1,.78-1h3.2c.5,0,.81.5.81,1.09h-3.98v3.65Z"/>
      <path class="cls-11" d="M122.77,51.92h8.06v-5.54c0-1.54-1.07-2.84-2.04-2.84h-8.72c-1.02,0-2.13,1.09-2.13,2.61v7.49c0,1.49.78,2.89,1.85,2.89h7.01v-3.51h-3.98c-.52,0-.85-.47-.85-1.28v-3.55c0-.64.33-1,.78-1h3.2c.5,0,.81.5.81,1.09h-3.98v3.65Z"/>
      <path class="cls-11" d="M172.27,43.53h-8.81c-1.22,0-2.02,1.33-2.02,2.76v7.5c0,1.44.85,2.72,1.9,2.72h9.05c1.2,0,1.97-1.48,1.97-2.95v-7.19c0-1.23-.81-2.84-2.09-2.84ZM170.28,51.92c0,.6-.35,1.09-.9,1.09h-3.16c-.55,0-.76-.71-.76-1.37v-3.4c0-.63.28-1.06.77-1.06h3.18c.6,0,.87.54.87.95v3.79Z"/>
      <path class="cls-11" d="M101.82,43.53v12.98h-10.8c-1.58,0-2.15-1.47-2.15-3.33v-9.65h4.08v8.22c0,1,.44,1.26.89,1.26h3.91v-9.48h4.08Z"/>
      <path class="cls-11" d="M157.61,43.53h-6.7v-4.6h-4.01l-.03,17.58h4.04v-9.34h3.81c.57,0,1.03.21,1.03,1.01s-.05,8.32-.05,8.32h4.09v-10.16c0-1.66-1.09-2.83-2.18-2.83Z"/>
      <path class="cls-11" d="M83.29,51.92c0,.6-.35,1.09-.9,1.09h-3.16c-.55,0-.76-.71-.76-1.37v-3.4c0-.63.28-1.06.77-1.06h3.18c.6,0,.87.54.87.95v1.34h4.08v-3.1c0-1.23-.81-2.84-2.09-2.84h-8.81c-1.22,0-2.02,1.33-2.02,2.76v7.5c0,1.44.85,2.72,1.9,2.72h9.05c1.2,0,1.97-1.48,1.97-2.95v-2.91h-4.08v1.26Z"/>
    </g>
  </g>
  <g>
    <path class="cls-9" d="M198.33,47.14c-.5,0-.92-.38-.98-.86-.05,0-.09.01-.14.01-.07,0-.14,0-.21-.02-.06.49-.48.87-.98.87h-.67c-.45,0-.84-.31-.95-.72-.12.42-.5.72-.95.72h-.7c-.55,0-.99-.44-.99-.99v-2.02h-.14c-.55,0-.99-.44-.99-.99v-.64c0-.55.44-.99.99-.99h2.95c.14,0,.27.03.39.08.12-.05.25-.08.39-.08h.75c.34,0,.65.17.83.46l.27.42.27-.42c.18-.29.5-.46.84-.46h.72c.55,0,.99.44.99.99v3.65c0,.55-.44.99-.99.99h-.67Z"/>
    <path class="cls-12" d="M192.73,43.14h-1.13v-.64h2.95v.64h-1.13v3.01h-.7v-3.01ZM195.34,42.5h.75l1.1,1.73,1.1-1.73h.72v3.65h-.67v-2.59l-1.13,1.74h-.07l-1.13-1.74v2.59h-.67v-3.65Z"/>
  </g>
</svg>